<?xml version="1.0" encoding="UTF-8"?>
<svg xmlns="http://www.w3.org/2000/svg" viewBox="0 0 196.31 226.6">
  <defs>
    <style>
      .cls-1, .cls-2 {
        fill: #fff;
      }

      .cls-3 {
        stroke-width: 5px;
      }

      .cls-3, .cls-4 {
        fill: none;
      }

      .cls-3, .cls-4, .cls-2 {
        stroke: #fff;
        stroke-miterlimit: 10;
      }

      .cls-4 {
        stroke-width: 6px;
      }
    </style>
  </defs>
  <g id="Layer_1" data-name="Layer 1">
    <path id="Right2" class="cls-3" d="m159.92,171.43c13.66,4.63,19.13,10.69,19.6,16.28.95,11.15-27.33,25.19-80.91,25.31"/>
    <path id="Left2" class="cls-3" d="m37.32,171.42c-13.66,4.63-19.13,10.69-19.6,16.28-.95,11.15,27.33,25.19,80.91,25.31"/>
  </g>
  <g id="Layer_2" data-name="Layer 2">
    <path id="Shoulders" class="cls-3" d="m178.96,191.11c2.85,1.49,5.48,3.07,9.71,8.96,2.58,3.59,4.46,10.83,5.12,18.33.27,3.07-2.13,5.71-5.21,5.71l-180.87-.29c-3.09,0-5.52-2.68-5.19-5.75.81-7.49,3.05-14.71,5.62-18.3,4.23-5.88,6.86-7.46,9.71-8.96"/>
    <path id="Sheen" class="cls-1" d="m68.19,43.66c-6.49,4.63-6.51,9.12-4.97,10.94,2.12,2.5,8.15,1.07,12.56-2.45,3.83-3.05,6.82-7.75,4.23-10.51-1.34-1.43-6.37-1.86-11.83,2.03Z"/>
    <path id="Gamepad" class="cls-2" d="m98.14,82.5c-2.15,0-3.9.02-7.13.07-3.35.06-6.28,4.22-8.06,8.6-2.63,6.46-2.9,12.81-1.11,13.9,1.18.72,2.36-.12,4.34-2.25,1.04-1.11,3.14-5.03,5.59-5.01,3.36.03,4.26.03,6.37.01h-.02c2.12.02,3.01.02,6.37,0,2.45-.02,4.55,3.9,5.59,5.01,1.99,2.13,3.16,2.97,4.34,2.25,1.78-1.09,1.51-7.44-1.11-13.9-1.78-4.37-4.71-8.54-8.06-8.6-3.23-.06-4.98-.08-7.13-.07h.02Z"/>
    <circle id="Inner_Circle" data-name="Inner Circle" class="cls-4" cx="96.6" cy="88.5" r="57.03"/>
    <circle id="Outer_Circle" data-name="Outer Circle" class="cls-4" cx="96.6" cy="88.5" r="85.5"/>
    <path id="Right_Neck_Ring" data-name="Right Neck Ring" class="cls-3" d="m146.32,158.9c9.8,4.1,12.97,7.17,13.9,11.58,2.85,13.54-26.38,24.95-62.02,24.76"/>
    <path id="Left_Neck_Ring" data-name="Left Neck Ring" class="cls-3" d="m50.09,158.9c-9.8,4.1-12.97,7.17-13.9,11.58-2.85,13.54,26.38,24.95,62.02,24.76"/>
  </g>
</svg>